<svg width="512" height="512" viewBox="0 0 512 512" xmlns="http://www.w3.org/2000/svg" role="img" aria-label="Rajesh Renewed logo">
  <defs>
    <linearGradient id="bg" x1="0" y1="0" x2="1" y2="1">
      <stop offset="0%" stop-color="#0f172a" />
      <stop offset="100%" stop-color="#1d2b4f" />
    </linearGradient>
  </defs>
  <rect x="0" y="0" width="512" height="512" rx="96" fill="url(#bg)" />
  <rect x="72" y="72" width="368" height="368" rx="80" fill="rgba(255,255,255,0.08)" stroke="rgba(255,255,255,0.12)" stroke-width="8" />
  <path d="M176 168h84c44 0 80 36 80 80s-36 80-80 80h-48v48h-36zm72 116c24 0 44-16 44-36s-20-36-44-36h-36v72z" fill="#E4E9F5" />
  <path d="M286 168h84c44 0 80 36 80 80s-36 80-80 80h-48v48h-36zm72 116c24 0 44-16 44-36s-20-36-44-36h-36v72z" fill="#8AD0FF" />
</svg>
